# xmcd
#
# Track frame offsets:
#	150
#	11277
#	24767
#	38482
#	53508
#	68876
#	89120
#	103123
#	114089
#	126841
#	137417
#	149235
#	163586
#	174919
#	189544
#	200843
#	213514
#
# Disc length: 3033 seconds
#
# Revision: 0
# Processed by: cddbd v1.5.1PL2 Copyright (c) Steve Scherf et al.
# Submitted via: EasyCDDAExtractor 9.1.0.1
#
DISCID=e80bd711
DTITLE=Various Artist - In Good Company
DYEAR=2006
DGENRE=Bluegrass
TTITLE0=Jimmy Gaudreau (feat. Orrin Starr and Mark Schatz) - Follow The Leader
TTITLE1=Jimmy Gaudreau (feat. Emory Lester and Scott Walker) - You've Got To Hid
TTITLE1=e Your Love Away
TTITLE2=Jimmy Gaudreau (feat. Wayne Taylor, Dan Tyminski, Rickie Simpkins and Mi
TTITLE2=ke Auldridge) - On This Rainy Day
TTITLE3=Jimmy Gaudreau (feat. John Starling, Mike Auldridge and Doug Derryberry)
TTITLE3=My Sally
TTITLE4=Jimmy Gaudreau (feat. Moondi Klein, Mike Auldridge and Mark Schatz) - Co
TTITLE4=lleen Malone
TTITLE5=Jimmy Gaudreau (feat. The Fox Family) - It's Not Over 'Til It's Over
TTITLE6=Jimmy Gaudreau (feat. Tony Rice Unit, Bella Fleck) - Ain't Nobody Gonn
TTITLE6=a Miss Me When I'm Gone
TTITLE7=Jimmy Gaudreau (feat. The Skylighters, Eric Brace) - Are You Wasting M
TTITLE7=y Time?
TTITLE8=Jimmy Gaudreau (feat. Orrin Starr and Mark Schatz) - Ashes Of Love
TTITLE9=Jimmy Gaudreau (feat. Tony Rice Unit) - Another Lonesome Morning
TTITLE10=Jimmy Gaudreau (feat. Randy Waller, Sammy Shelor and Aubrey Haynie) - W
TTITLE10=ho's Sad And Lonely Now?
TTITLE11=Jimmy Gaudreau (feat. Robin and Linda Williams) - Rumble
TTITLE12=Jimmy Gaudreau (feat. Bill Emerson, Tony rice Unit, Rickie Simpkins &
TTITLE12=Mark Schatz) - Choking The Strings
TTITLE13=Jimmy Gaudreau (feat. Leon Morris, Scott Walker, Emory Lester and Mark 
TTITLE13=Schatz) - Dark Waters
TTITLE14=Jimmy Gaudreau (feat. Jack Lawrence and Emory Lester) - Crazy Blues
TTITLE15=Jimmy Gaudreau (feat. Charlie Waller and Emory Lester) - The Old Songs
TTITLE16=Jimmy Gaudreau (feat. Bill Clifton) - Home Of The Soul
EXTD=
EXTT0=
EXTT1=
EXTT2=
EXTT3=
EXTT4=
EXTT5=
EXTT6=
EXTT7=
EXTT8=
EXTT9=
EXTT10=
EXTT11=
EXTT12=
EXTT13=
EXTT14=
EXTT15=
EXTT16=
PLAYORDER=
